<svg viewBox="0 0 1024 1024" height="1024" width="1024" xmlns:xlink="http://www.w3.org/1999/xlink" xmlns="http://www.w3.org/2000/svg">
  <defs>
    <clipPath id="clip-遛狗">
      <rect height="1024" width="1024"></rect>
    </clipPath>
  </defs>
  <g clip-path="url(#clip-遛狗)" id="遛狗">
    <rect fill="#d6f3e9" height="1024" width="1024"></rect>
    <path fill="#eefdf7" transform="translate(-9201.916 -7859.967)" d="M9168.833,8463.762s207.459,38.59,339.479-116.062,104.238-161.3,118.963-191.5,26.847-78.252,102.286-59.392,230.229-19.529,260.405-79.881,103-46.715,121.864-58.031,23.506-71.664,23.506-113.156,109.388-22.632,109.388-22.632l5.8,1094.457L9189.144,8925.1Z" id="路径_514"></path>
    <g transform="translate(-10460.03 -6287.156) rotate(-9)" id="组_186">
      <g transform="translate(9628.063 8489.316)" id="组_184">
        <path fill="#76e7a9" transform="translate(-9628.063 -8481.146)" d="M9647.826,8600.683s-14.448-6.27-15.308-21.361,7.419-17.72,7.831-21.429-14.425-11.949-11.539-23.076,6.019-9.577,6.182-17.308-9.665-15.783-6.182-28.435,12.364-8.27,16.482,0,4.277,22,14.579,29.826,15.215,17.751,8.876,31.063,9.192,10.779,11.161,23.589,8.241,34.614-3.3,38.323S9647.826,8600.683,9647.826,8600.683Z" id="路径_515"></path>
        <path stroke-width="3" stroke-linecap="round" stroke="#abf0c9" fill="none" transform="translate(-9626.401 -8478.062)" d="M9638.557,8500.6c-.634,1.268,24.093,84.637,21.239,113.482" id="路径_516"></path>
        <path stroke-width="3" stroke-linecap="round" stroke="#abf0c9" fill="none" transform="translate(-9626.703 -8476.629)" d="M9636.64,8523.894l10.145,3.8,1.585-18.068" id="路径_517"></path>
        <path stroke-width="3" stroke-linecap="round" stroke="#abf0c9" fill="none" transform="translate(-9624.795 -8473.549)" d="M9655.652,8529.056,9648.68,8543" id="路径_518"></path>
        <path stroke-width="3" stroke-linecap="round" stroke="#abf0c9" fill="none" transform="translate(-9626.529 -8469.298)" d="M9662.776,8555.87l-5.389,20.287-19.653-5.706" id="路径_519"></path>
      </g>
      <g transform="translate(9666.294 8429.598)" id="组_185">
        <path fill="#76e7a9" transform="translate(-9628.062 -8481.145)" d="M9687.709,8681.673s24.238-10.52,25.679-35.835-12.445-29.727-13.136-35.946,24.2-20.046,19.357-38.712-10.1-16.065-10.37-29.035,16.214-26.475,10.37-47.7-20.743-13.875-27.651,0-7.174,36.9-24.456,50.032-25.523,29.778-14.89,52.111-15.42,18.082-18.723,39.569-13.824,58.066,5.53,64.289S9687.709,8681.673,9687.709,8681.673Z" id="路径_515-2"></path>
        <path stroke-width="3" stroke-linecap="round" stroke="#abf0c9" fill="none" transform="translate(-9602.146 -8462.79)" d="M9674.558,8500.6c1.063,2.127-40.415,141.979-35.63,190.369" id="路径_516-2"></path>
        <path stroke-width="3" stroke-linecap="round" stroke="#abf0c9" fill="none" transform="translate(-9580.182 -8454.271)" d="M9656.315,8533.558l-17.018,6.381-2.659-30.31" id="路径_517-2"></path>
        <path stroke-width="3" stroke-linecap="round" stroke="#abf0c9" fill="none" transform="translate(-9607.644 -8435.942)" d="M9648.68,8529.056l11.7,23.4" id="路径_518-2"></path>
        <path stroke-width="3" stroke-linecap="round" stroke="#abf0c9" fill="none" transform="translate(-9605.738 -8410.643)" d="M9637.734,8555.869l9.04,34.032,32.968-9.572" id="路径_519-2"></path>
      </g>
    </g>
    <path fill="#7ae7ac" transform="translate(-33.083 512)" d="M9.872,557.326,0,243.951S233.794,271.239,399.261,233.1a28.032,28.032,0,0,1,32.7-9.254,28.026,28.026,0,0,1,36.748-22.461q-.039-.741-.039-1.491a28,28,0,0,1,51.608-15.062l1.13-.527a28.05,28.05,0,0,1,28.057-12c148.828-58.639,348.275-64.221,399.411-85.141C1006.982,63.392,1080.941,0,1080.941,0l-3.963,557.326Z" id="联合_20"></path>
    <g transform="translate(-9239.969 -7900.858)" id="组_189">
      <g transform="translate(10004 8005.999)" id="组_187">
        <rect fill="#abecd3" transform="translate(112.284 296.339)" height="366.949" width="11.576" id="矩形_130"></rect>
        <path fill="#8fd7bb" transform="translate(2.451 0.001)" d="M117.3,0c30.864.412,117.254,98.8,117.254,182.869S181.871,304.441,117.3,304.441-2.451,262.054-2.451,177.985,86.436-.412,117.3,0Z" id="路径_521"></path>
      </g>
      <g transform="translate(10211.368 8357.725) rotate(45)" id="组_188">
        <rect fill="#abecd3" transform="translate(43.988 123.837)" height="153.957" width="8.103" id="矩形_130-2"></rect>
        <path fill="#8fd7bb" transform="translate(0 0)" d="M50.153,0C63.08.173,99.261,41.379,99.261,76.588S77.2,127.5,50.153,127.5,0,109.752,0,74.543,37.227-.172,50.153,0Z" id="路径_521-2"></path>
      </g>
      <path fill="#03c96e" transform="translate(10050.745 8512.437)" d="M0,111.908,48.173,50.353l.75-.047a28.367,28.367,0,0,1,47.326-6.93A45.15,45.15,0,0,1,179.4,20.828a28.366,28.366,0,1,1,49.691,27.36v63.72Z" id="联合_21"></path>
    </g>
    <g transform="translate(-9201.916 -7804.941)" id="组_195">
      <g id="组_190">
        <path fill="#f77a3f" d="M9900.569,8134.505v10.313l10.524,2.1,4-18.942,21.047,6.525,6.524,12.417,37.675,21.258s11.576-31.992,11.786-36.622,5.052-26.519-6.524-38.1-28.2-12.208-29.045-12.418-7.577-11.576-24.836-10.1-55.354,52.828-55.354,52.828l18.1,14.733Z" id="路径_523"></path>
        <path fill="#ffbbc4" d="M9917.618,8139.557s5.894,25.256,4.42,30.939,34.1,4.42,34.1,4.42-10.1-22.521-11.786-28.624,2.345-15.989,2.345-15.989Z" id="路径_524"></path>
        <path fill="#ffc1c7" d="M9909.794,8107.513s11.819-17.324,20.562-19.1,20.075-.486,24.447,9.39a25.575,25.575,0,0,1,.647,18.781s9.714-.972,9.391,4.533-10.2,11.01-18.133,9.552c-.972.647-14.571,12.79-31.895,9.552s-9.876-24.933-9.876-24.933-2.429-2.914-1.619-4.533S9909.794,8107.513,9909.794,8107.513Z" id="路径_525"></path>
        <path fill="#fca207" transform="translate(9943 8134)" d="M5-3.584S10,2.239,10,5A5,5,0,0,1,0,5C0,2.239,5-3.584,5-3.584Z" id="路径_526"></path>
      </g>
      <g id="组_191">
        <path fill="#fff" d="M9916.25,8164.324s3.724,9.876,31.409,3.238-16.381,34.488-16.381,34.488l26.94,68.4-76.19-1.474,5.894-75.559Z" id="路径_527"></path>
        <path fill="#f1c72a" d="M9918.029,8164.484s-23.638,20.4-24.771,34.646-2.429,71.236-2.429,71.236l-54.4,50.514-39.029-1.823-31.149-43.357s63.325-27.571,70.179-34.1,28.48-59.323,40.3-66.123S9918.029,8164.484,9918.029,8164.484Z" id="路径_528"></path>
        <path fill="#a17b00" d="M9892.967,8202.978l-13.914,61.769-52.572,55.594,10.081.535,54.2-50.359Z" id="路径_529"></path>
        <path fill="#ffc1c8" d="M9772.557,8279.9s-20.206,9.681-26.73,9.892-26.309-1.895-34.307,3.578-13.47,9.471-13.049,14.312,11.155,19.364,16.417,21.679,11.786.842,13.891,2.525,20.416,4.631,24.2,2.947,14.733-5.895,18.521-18.312c.842-.631,21.047-8.84,21.047-8.84Z" id="路径_530"></path>
        <path fill="#f1c72a" d="M9949.555,8159.506s-25.332,33.506-26.729,38.937,3.367,16.206,6.1,23.783,65.667,178.479,65.667,178.479l165.955-58.848-64.572-57.185,34.476-31.739-125.04-93.427Z" id="路径_531"></path>
        <path fill="#a17e00" d="M10082.351,8222.428l38.095,34.307-73.664,35.99,53.038-38.516Z" id="路径_532"></path>
        <path fill="#a17e00" d="M9993.532,8314.613l25.677,24.625,76.822-54.722,11.575,10.313-88.4,59.143Z" id="路径_533"></path>
        <path fill="#ffc0c7" d="M9950.04,8278.748l43.228,35.618s-3.076,3.237-12.79,5.181-35.618,1.619-45.494-9.876-4.857,4.209-5.343,6.314-3.076,3.4-10.848,0-11.171-7.124-12.79-10.848,2.752-12.142,7.609-18.618,11.332-13.275,17.971-13.6S9950.04,8278.748,9950.04,8278.748Z" id="路径_534"></path>
      </g>
      <g id="组_194">
        <g id="组_192">
          <path fill="#0b63da" d="M10027.017,8331.423s13.161,67.938,9.248,83.944c3.2,1.067,52.287-2.135,88.212,17.429s64.381,49.8,37.349,98.527-82.877,71.139-82.877,71.139l-110.977-50.509-61.18-51.931-22.053-76.83,39.482-61.18Z" id="路径_535"></path>
          <path fill="#000c63" d="M9996.427,8374.106s-61.979,60.517-66.545,65.417c1.915,3.831,21.889,31.191,19.152,51.713a73.051,73.051,0,0,1-13.431,33.685l-41.972-39.482,3.2-72.206,27.032-36.636,28.456-44.462,40.193,6.047Z" id="路径_536"></path>
          <path fill="#ff7633" d="M10104.409,8539.178l-41.154,24.508,32.368,41.153,47.628-47.627Z" id="路径_537"></path>
        </g>
        <g id="组_193">
          <path fill="#308bf6" d="M9889.554,8269.568h91.765l-8,69.034s-17.989,46.477-34.953,68.092-31.556,31.249-31.135,33.144,32.528,46.093,29.793,76.19-25.966,77.9-88.212,77.541-112.044-8.18-123.07-25.609,6.4-144.057,18.5-159.707S9889.554,8269.568,9889.554,8269.568Z" id="路径_538"></path>
          <path fill="#ff7735" d="M9754.867,8564.869c.421.21,47.776,0,47.776,0v70.508h-24.414v-15.785l-14.827,14.827-55.26,4.535-7.156-30.938S9754.025,8593.7,9754.867,8564.869Z" id="路径_539"></path>
        </g>
      </g>
    </g>
    <g transform="translate(-9201.916 -7804.941)" id="组_196">
      <path fill="#260005" d="M9356.779,8580.521l20.6,62.844h8.43l-10.921-71.083Z" id="路径_543"></path>
      <path fill="#260005" d="M9523.468,8568.506s3.237,24.41,21.3,26.651,23.787,50.188,23.787,50.188l4.607-.249s-6.228-53.3-12.952-58.408S9523.468,8568.506,9523.468,8568.506Z" id="路径_544"></path>
      <path fill="#580230" d="M9296.081,8440.991v-16.718h45.529l55.488,69.716s79.32,4.625,99.595,9.6,44.672,13.1,44.672,13.1-5.473-18.332,10.944-18.879c.547,0-9.659-26.76,19.152-31.739s55.543,20.521,33.928,35.843-32.833,6.02-32.833,6.02,1.368,15.322-18.059,16.144c11.492,8.208,24.625,38.031,15.322,45.967.547.547,12.595,10.733,12.595,10.733v13.872l7.379,2.481,4.715,43.759-6.4,2.134L9572.1,8588.96s-31.657,3.2-46.952-16.361-59.4-19.92-72.206-19.208-68.625,12.556-83.943,25.254c-15.045,5.311-40.5,13.842-40.5,13.842l18.059,20.795-2.736,3.01-31.739-25.446s46.787-19.152,47.335-22.436-29.823-10.671-32.286-34.749,0-31.739,0-31.739h-25.172l2.462-27.908s-42.684-14.227-41.589-22.709S9296.081,8440.991,9296.081,8440.991Z" id="路径_540"></path>
      <ellipse fill="#ac4243" transform="translate(9287 8447)" ry="6.5" rx="10" cy="6.5" cx="10" id="椭圆_121"></ellipse>
      <path fill="#f1002b" d="M9327.23,8501.216l52.779-28.818,6.152,7.771-59.653,25.984Z" id="路径_541"></path>
      <path fill="#230013" d="M9329.859,8451.191l15.711,40.044,9.1-4.981Z" id="路径_542"></path>
      <path fill="#3d1111" transform="translate(9380.493 8297.869)" d="M6.152,183.107v0h0L0,175.659c.209-.109,1.84-.95,4.7-2.423C94.042,127.177,302.647,19.657,310.041,16.027,319.938,11.168,343.4.421,348.656.139,350.243.053,353.905,0,358.213,0c13,0,29.665.463,33.84,1.767a39.525,39.525,0,0,1,10.374,5.987c3.293,2.519,7.663,6.471,9.779,10.994a9.907,9.907,0,0,1,.54,8.214,16.261,16.261,0,0,1-2.645,4.4,12.806,12.806,0,0,1-3.459,2.834,17.476,17.476,0,0,1-8.712,1.965,47.637,47.637,0,0,1-10.284-1.349c-2.8-.623-6.245-2.517-10.518-5.79-3.732-2.858-7.63-6.411-11.07-9.546-4.584-4.177-8.543-7.785-11.19-9.039a10.124,10.124,0,0,0-4.347-.861c-6.52,0-14.426,4.373-14.505,4.418ZM368.035,6.866c-.055,0-.1,0-.137,0-1.491.083-4.205.73-5.144,2.112a1.632,1.632,0,0,0-.211,1.5c.395,1.184,6.3,5.054,11.69,8.281,6.415,3.839,12.567,7.091,14.96,7.908a23.015,23.015,0,0,0,6.948,1.105c2.4,0,5.612-.438,7.283-2.523,1.065-1.33,1.347-3.157.839-5.431-.478-2.136-2.528-4.138-6.095-5.951a55.815,55.815,0,0,0-11.615-4.017A112.113,112.113,0,0,0,368.035,6.866Z" id="减去_8"></path>
    </g>
    <path fill="#03c96e" transform="translate(-32.917 745.033)" d="M11.572,394.637V213.749L6.826,151.127A69.679,69.679,0,0,1,0,120.863C0,84.4,27.535,54.836,61.5,54.836S123,84.4,123,120.863a71.655,71.655,0,0,1-.381,7.39A63.906,63.906,0,0,1,145,124.221c37.555,0,68,32.567,68,72.742a78.329,78.329,0,0,1-.72,10.624A48.839,48.839,0,0,1,236,201.439a49.56,49.56,0,0,1,32.544,12.31h8.378c13.469-31.075,42.693-52.6,76.578-52.6s63.109,21.524,76.578,52.6h30.235c16.346-10.486,37.318-16.787,60.186-16.787s43.84,6.3,60.186,16.787h26.355C617.108,197.586,634.6,186.89,654.5,186.89a54.528,54.528,0,0,1,14.318,1.9A66.148,66.148,0,0,1,661,157.234c0-32.448,22.386-58.753,50-58.753a43.392,43.392,0,0,1,18.084,3.961C731.247,45.471,774.929,0,828.5,0c32.993,0,62.236,17.248,80.338,43.809,11.568-19.665,31.284-32.618,53.661-32.618,35.623,0,64.5,32.819,64.5,73.3a82.629,82.629,0,0,1-2.643,20.837,39.545,39.545,0,0,1,22.144-6.848c24.025,0,43.5,22.046,43.5,49.241,0,21.963-12.7,40.568-30.246,46.913l9.036,200Z" id="联合_22"></path>
    <path fill="#fff" transform="translate(-9384.375 -4357.37)" d="M9469.031,4710.409h87.807s-6.632-46.964-41.06-15.314c.315,0-6.634-25.523-24.006-21.44S9466.563,4699.631,9469.031,4710.409Z" id="路径_420"></path>
    <path fill="#fff" transform="translate(-8865.124 -4651.67)" d="M9556.395,4710.409h-87.807s6.632-46.964,41.06-15.314c-.315,0,6.634-25.523,24.006-21.44S9558.863,4699.631,9556.395,4710.409Z" id="路径_765"></path>
    <path fill="#fff" transform="translate(-9296.123 -4577.371)" d="M9468.809,4691.811h43.9s-3.316-23.482-20.53-7.657c.157,0-3.317-12.762-12-10.72S9467.574,4686.421,9468.809,4691.811Z" id="路径_764"></path>
  </g>
</svg>
